<!--
	@license
	ISC
	Copyright (c) 2026 Lucide Icons and Contributors
	https://github.com/lucide-icons/lucide/blob/3c62e4bfef50fb88dd9618439b46811af912ba4a/LICENSE
-->
<svg xmlns="http://www.w3.org/2000/svg">
	<symbol id="sun" viewBox="0 0 24 24" fill="none" stroke="currentColor" stroke-width="2" stroke-linecap="round" stroke-linejoin="round">
		<circle cx="12" cy="12" r="4" />
		<path d="M12 2v2" />
		<path d="M12 20v2" />
		<path d="m4.93 4.93 1.41 1.41" />
		<path d="m17.66 17.66 1.41 1.41" />
		<path d="M2 12h2" />
		<path d="M20 12h2" />
		<path d="m6.34 17.66-1.41 1.41" />
		<path d="m19.07 4.93-1.41 1.41" />
	</symbol>
	<symbol id="sun-moon" viewBox="0 0 24 24" fill="none" stroke="currentColor" stroke-width="2" stroke-linecap="round" stroke-linejoin="round">
		<path d="M12 2v2" />
		<path d="M14.837 16.385a6 6 0 1 1-7.223-7.222c.624-.147.97.66.715 1.248a4 4 0 0 0 5.26 5.259c.589-.255 1.396.09 1.248.715" />
		<path d="M16 12a4 4 0 0 0-4-4" />
		<path d="m19 5-1.256 1.256" />
		<path d="M20 12h2" />
	</symbol>
	<symbol id="moon" viewBox="0 0 24 24" fill="none" stroke="currentColor" stroke-width="2" stroke-linecap="round" stroke-linejoin="round">
		<path d="M20.985 12.486a9 9 0 1 1-9.473-9.472c.405-.022.617.46.402.803a6 6 0 0 0 8.268 8.268c.344-.215.825-.004.803.401" />
	</symbol>
	<symbol id="printer" viewBox="0 0 24 24" fill="none" stroke="currentColor" stroke-width="2" stroke-linecap="round" stroke-linejoin="round">
		<path d="M6 18H4a2 2 0 0 1-2-2v-5a2 2 0 0 1 2-2h16a2 2 0 0 1 2 2v5a2 2 0 0 1-2 2h-2" />
		<path d="M6 9V3a1 1 0 0 1 1-1h10a1 1 0 0 1 1 1v6" />
		<rect x="6" y="14" width="12" height="8" rx="1" />
	</symbol>
	<symbol id="share-2" viewBox="0 0 24 24" fill="none" stroke="currentColor" stroke-width="2" stroke-linecap="round" stroke-linejoin="round">
		<circle cx="18" cy="5" r="3" />
		<circle cx="6" cy="12" r="3" />
		<circle cx="18" cy="19" r="3" />
		<line x1="8.59" x2="15.42" y1="13.51" y2="17.49" />
		<line x1="15.41" x2="8.59" y1="6.51" y2="10.49" />
	</symbol>
	<symbol id="plus" viewBox="0 0 24 24" fill="none" stroke="currentColor" stroke-width="2" stroke-linecap="round" stroke-linejoin="round">
		<path d="M5 12h14" />
		<path d="M12 5v14" />
	</symbol>
	<symbol id="file-down" viewBox="0 0 24 24" fill="none" stroke="currentColor" stroke-width="2" stroke-linecap="round" stroke-linejoin="round">
		<path d="M6 22a2 2 0 0 1-2-2V4a2 2 0 0 1 2-2h8a2.4 2.4 0 0 1 1.704.706l3.588 3.588A2.4 2.4 0 0 1 20 8v12a2 2 0 0 1-2 2z" />
		<path d="M14 2v5a1 1 0 0 0 1 1h5" />
		<path d="M12 18v-6" />
		<path d="m9 15 3 3 3-3" />
	</symbol>
	<symbol id="file-up" viewBox="0 0 24 24" fill="none" stroke="currentColor" stroke-width="2" stroke-linecap="round" stroke-linejoin="round">
		<path d="M6 22a2 2 0 0 1-2-2V4a2 2 0 0 1 2-2h8a2.4 2.4 0 0 1 1.704.706l3.588 3.588A2.4 2.4 0 0 1 20 8v12a2 2 0 0 1-2 2z" />
		<path d="M14 2v5a1 1 0 0 0 1 1h5" />
		<path d="M12 12v6" />
		<path d="m15 15-3-3-3 3" />
	</symbol>
	<symbol id="x" viewBox="0 0 24 24" fill="none" stroke="currentColor" stroke-width="2" stroke-linecap="round" stroke-linejoin="round">
		<path d="M18 6 6 18" />
		<path d="m6 6 12 12" />
	</symbol>
</svg>
